<svg id="visual" viewBox="0 0 900 600" width="900" height="600" xmlns="http://www.w3.org/2000/svg" xmlns:xlink="http://www.w3.org/1999/xlink" version="1.1"><path d="M0 121L13.7 119C27.3 117 54.7 113 82 101C109.3 89 136.7 69 163.8 60C191 51 218 53 245.2 59C272.3 65 299.7 75 327 78C354.3 81 381.7 77 409 82C436.3 87 463.7 101 491 101C518.3 101 545.7 87 573 77C600.3 67 627.7 61 654.8 70C682 79 709 103 736.2 111C763.3 119 790.7 111 818 106C845.3 101 872.7 99 886.3 98L900 97L900 0L886.3 0C872.7 0 845.3 0 818 0C790.7 0 763.3 0 736.2 0C709 0 682 0 654.8 0C627.7 0 600.3 0 573 0C545.7 0 518.3 0 491 0C463.7 0 436.3 0 409 0C381.7 0 354.3 0 327 0C299.7 0 272.3 0 245.2 0C218 0 191 0 163.8 0C136.7 0 109.3 0 82 0C54.7 0 27.3 0 13.7 0L0 0Z" fill="#79ff7f"></path><path d="M0 349L13.7 334C27.3 319 54.7 289 82 274C109.3 259 136.7 259 163.8 270C191 281 218 303 245.2 293C272.3 283 299.7 241 327 246C354.3 251 381.7 303 409 308C436.3 313 463.7 271 491 259C518.3 247 545.7 265 573 284C600.3 303 627.7 323 654.8 336C682 349 709 355 736.2 354C763.3 353 790.7 345 818 345C845.3 345 872.7 353 886.3 357L900 361L900 95L886.3 96C872.7 97 845.3 99 818 104C790.7 109 763.3 117 736.2 109C709 101 682 77 654.8 68C627.7 59 600.3 65 573 75C545.7 85 518.3 99 491 99C463.7 99 436.3 85 409 80C381.7 75 354.3 79 327 76C299.7 73 272.3 63 245.2 57C218 51 191 49 163.8 58C136.7 67 109.3 87 82 99C54.7 111 27.3 115 13.7 117L0 119Z" fill="#00ee26"></path><path d="M0 457L13.7 445C27.3 433 54.7 409 82 393C109.3 377 136.7 369 163.8 384C191 399 218 437 245.2 433C272.3 429 299.7 383 327 375C354.3 367 381.7 397 409 391C436.3 385 463.7 343 491 341C518.3 339 545.7 377 573 396C600.3 415 627.7 415 654.8 415C682 415 709 415 736.2 417C763.3 419 790.7 423 818 422C845.3 421 872.7 415 886.3 412L900 409L900 359L886.3 355C872.7 351 845.3 343 818 343C790.7 343 763.3 351 736.2 352C709 353 682 347 654.8 334C627.7 321 600.3 301 573 282C545.7 263 518.3 245 491 257C463.7 269 436.3 311 409 306C381.7 301 354.3 249 327 244C299.7 239 272.3 281 245.2 291C218 301 191 279 163.8 268C136.7 257 109.3 257 82 272C54.7 287 27.3 317 13.7 332L0 347Z" fill="#00bb20"></path><path d="M0 517L13.7 508C27.3 499 54.7 481 82 472C109.3 463 136.7 463 163.8 471C191 479 218 495 245.2 483C272.3 471 299.7 431 327 428C354.3 425 381.7 459 409 452C436.3 445 463.7 397 491 397C518.3 397 545.7 445 573 468C600.3 491 627.7 489 654.8 488C682 487 709 487 736.2 487C763.3 487 790.7 487 818 490C845.3 493 872.7 499 886.3 502L900 505L900 407L886.3 410C872.7 413 845.3 419 818 420C790.7 421 763.3 417 736.2 415C709 413 682 413 654.8 413C627.7 413 600.3 413 573 394C545.7 375 518.3 337 491 339C463.7 341 436.3 383 409 389C381.7 395 354.3 365 327 373C299.7 381 272.3 427 245.2 431C218 435 191 397 163.8 382C136.7 367 109.3 375 82 391C54.7 407 27.3 431 13.7 443L0 455Z" fill="#00ee26"></path><path d="M0 601L13.7 601C27.3 601 54.7 601 82 601C109.3 601 136.7 601 163.8 601C191 601 218 601 245.2 601C272.3 601 299.7 601 327 601C354.3 601 381.7 601 409 601C436.3 601 463.7 601 491 601C518.3 601 545.7 601 573 601C600.3 601 627.7 601 654.8 601C682 601 709 601 736.2 601C763.3 601 790.7 601 818 601C845.3 601 872.7 601 886.3 601L900 601L900 503L886.3 500C872.7 497 845.3 491 818 488C790.7 485 763.3 485 736.2 485C709 485 682 485 654.8 486C627.7 487 600.3 489 573 466C545.7 443 518.3 395 491 395C463.7 395 436.3 443 409 450C381.7 457 354.3 423 327 426C299.7 429 272.3 469 245.2 481C218 493 191 477 163.8 469C136.7 461 109.3 461 82 470C54.7 479 27.3 497 13.7 506L0 515Z" fill="#79ff7f"></path></svg>